<?xml version="1.0" encoding="UTF-8"?>
<svg xmlns="http://www.w3.org/2000/svg" width="363" height="62" viewBox="0 0 363 62" fill="none">
  <g clip-path="url(#clip0_3591_2011)">
    <path d="M9.03711 30.9478C9.03711 35.2512 10.2526 39.2318 12.3665 42.567L18.6024 30.7327L12.4193 19.2211C10.3054 22.61 9.03711 26.6445 9.03711 30.9478Z" fill="#FF821C"></path>
    <path d="M30.3335 9.26978C26 9.26978 21.9837 10.5608 18.6543 12.8201L28.3253 30.6791L18.6543 49.0223C21.9837 51.2815 26 52.5726 30.3335 52.5726C42.0655 52.5726 51.6308 42.8899 51.6308 30.8943C51.6308 18.8986 42.0655 9.26978 30.3335 9.26978ZM33.1343 49.0223H23.4634L33.1343 30.7329L23.4634 12.8201H33.1343L42.8053 30.6791L33.1343 49.0223Z" fill="#FF821C"></path>
    <path d="M33.082 0.232615V3.72911C46.6108 5.12771 57.1802 16.8006 57.1802 30.8942C57.1802 44.9878 46.6108 56.6607 33.082 58.0593V61.5558C48.5133 60.1034 60.6153 46.9243 60.6153 30.8404C60.6153 14.7565 48.5133 1.63121 33.082 0.232615Z" fill="#FF821C"></path>
    <path d="M27.5332 58.1131C14.0044 56.7145 3.43505 45.0954 3.43505 30.948C3.43505 16.8006 14.0044 5.12771 27.5332 3.72911V0.232615C12.1019 1.63121 0 14.8641 0 30.948C0 47.0319 12.1019 60.211 27.5332 61.6634V58.1131Z" fill="#FF821C"></path>
    <path d="M97.8562 5.19242C96.3977 4.15423 94.6696 3.6432 92.6614 3.6432C90.9491 3.6432 89.4853 3.97134 88.2698 4.62222C87.0543 5.27311 86.0502 6.14992 85.2628 7.25266C84.4754 8.35541 83.8941 9.61414 83.5189 11.0235C83.1437 12.4382 82.9587 13.9068 82.9587 15.4291C82.9587 17.0913 83.1489 18.662 83.5189 20.1413C83.8941 21.626 84.4754 22.917 85.2628 24.0197C86.0502 25.1225 87.0649 25.9993 88.2909 26.6502C89.517 27.301 90.9914 27.6292 92.7037 27.6292C93.9614 27.6292 95.0765 27.4194 96.0542 26.9944C97.0318 26.5748 97.8721 25.9885 98.5802 25.2408C99.2884 24.4931 99.8433 23.6001 100.24 22.5673C100.636 21.5291 100.879 20.4156 100.958 19.2214H104.769C104.393 22.8955 103.151 25.7518 101.043 27.7905C98.929 29.8293 96.0436 30.8513 92.3813 30.8513C90.1617 30.8513 88.2275 30.4586 86.5681 29.684C84.914 28.9094 83.5347 27.8443 82.4355 26.478C81.3416 25.1225 80.5172 23.5141 79.9728 21.6636C79.4232 19.8132 79.1484 17.8282 79.1484 15.7034C79.1484 13.5786 79.4391 11.5883 80.031 9.72173C80.6176 7.86052 81.4843 6.23061 82.6152 4.84815C83.7514 3.46031 85.1677 2.36833 86.8641 1.56682C88.5605 0.765317 90.5052 0.367254 92.6984 0.367254C94.1939 0.367254 95.6102 0.571665 96.9473 0.980486C98.2843 1.38931 99.4733 1.99178 100.514 2.77715C101.556 3.56789 102.427 4.55229 103.12 5.73572C103.817 6.91915 104.272 8.28548 104.483 9.83469H100.673C100.245 7.76907 99.3042 6.21985 97.8457 5.18166L97.8562 5.19242Z" fill="black"></path>
    <path d="M123.623 28.861C122.075 30.0552 120.12 30.6576 117.768 30.6576C116.114 30.6576 114.677 30.3887 113.456 29.84C112.24 29.2967 111.215 28.5328 110.391 27.5538C109.566 26.5748 108.937 25.4021 108.525 24.0412C108.113 22.6856 107.875 21.201 107.822 19.5926C107.822 17.9896 108.06 16.5157 108.541 15.187C109.022 13.8583 109.698 12.7018 110.565 11.7174C111.432 10.7384 112.462 9.97452 113.651 9.43121C114.84 8.88791 116.146 8.61357 117.562 8.61357C119.406 8.61357 120.934 9.00625 122.154 9.78086C123.37 10.5555 124.347 11.5452 125.082 12.7394C125.817 13.9336 126.324 15.2408 126.604 16.6555C126.884 18.0703 126.995 19.4204 126.948 20.6953H111.432C111.405 21.6205 111.511 22.4974 111.754 23.3258C111.992 24.1595 112.383 24.8911 112.917 25.5312C113.456 26.1714 114.132 26.6824 114.962 27.0589C115.792 27.4355 116.764 27.6291 117.89 27.6291C119.332 27.6291 120.516 27.2902 121.436 26.6071C122.355 25.9239 122.963 24.8965 123.259 23.5033H126.63C126.176 25.8701 125.172 27.6507 123.623 28.8502H123.613L123.623 28.861ZM122.799 15.3107C122.493 14.5791 122.08 13.9444 121.557 13.4118C121.034 12.8793 120.421 12.4597 119.713 12.1477C119.005 11.8357 118.223 11.6797 117.366 11.6797C116.51 11.6797 115.691 11.8357 114.978 12.1477C114.264 12.4597 113.657 12.8847 113.155 13.4334C112.647 13.982 112.246 14.6114 111.955 15.3322C111.659 16.053 111.485 16.8223 111.432 17.6399H123.338C123.28 16.8223 123.1 16.0477 122.794 15.3161L122.799 15.3107Z" fill="black"></path>
    <path d="M133.687 9.10854V12.4544H133.766C135.182 9.89928 137.428 8.61903 140.504 8.61903C141.867 8.61903 143.003 8.81268 143.912 9.18922C144.821 9.56577 145.556 10.0983 146.116 10.7815C146.676 11.4646 147.073 12.2715 147.295 13.2129C147.522 14.1489 147.638 15.1924 147.638 16.3328V30.2112H144.23V15.9294C144.23 14.6222 143.854 13.5894 143.104 12.8256C142.359 12.0671 141.323 11.6798 140.018 11.6798C138.977 11.6798 138.073 11.8412 137.312 12.1693C136.551 12.4974 135.917 12.9601 135.404 13.5572C134.897 14.1543 134.516 14.8589 134.257 15.6604C133.998 16.4619 133.872 17.3388 133.872 18.2909V30.2059H130.463V9.10854H133.676H133.687Z" fill="black"></path>
    <path d="M161.638 9.10856V12.1693H157.505V25.2731C157.505 25.6766 157.537 26.0047 157.605 26.2522C157.674 26.4942 157.801 26.6879 157.991 26.8224C158.181 26.9568 158.44 27.0483 158.773 27.0859C159.106 27.129 159.54 27.1505 160.079 27.1505H161.643V30.2113H159.038C158.155 30.2113 157.399 30.1467 156.77 30.0284C156.142 29.9047 155.634 29.6787 155.248 29.356C154.857 29.0278 154.572 28.5652 154.387 27.9681C154.197 27.371 154.107 26.5803 154.107 25.6013V12.1747H150.582V9.11394H154.107V2.78797H157.516V9.11394H161.648L161.638 9.10856Z" fill="black"></path>
    <path d="M168.492 9.10858V13.5572H168.571C169.401 11.8466 170.415 10.5771 171.62 9.76485C172.82 8.9472 174.347 8.57066 176.191 8.61907V12.2931C174.828 12.2931 173.665 12.4867 172.703 12.8633C171.742 13.2398 170.965 13.7993 170.378 14.5362C169.792 15.2678 169.358 16.1607 169.094 17.2097C168.83 18.2533 168.698 19.4636 168.698 20.8192V30.2059H165.289V9.10858H168.497H168.492Z" fill="black"></path>
    <path d="M197.114 30.1306C196.527 30.4857 195.708 30.6632 194.672 30.6632C193.789 30.6632 193.087 30.4157 192.563 29.9101C192.04 29.4044 191.781 28.5814 191.781 27.4356C190.846 28.5814 189.757 29.4044 188.515 29.9101C187.273 30.4157 185.931 30.6632 184.488 30.6632C183.553 30.6632 182.665 30.5556 181.82 30.335C180.974 30.1145 180.25 29.7756 179.637 29.313C179.024 28.8504 178.533 28.2479 178.173 27.4948C177.809 26.7471 177.629 25.838 177.629 24.7783C177.629 23.5841 177.83 22.6051 178.231 21.8359C178.628 21.0774 179.161 20.4588 179.817 19.98C180.472 19.5067 181.217 19.1409 182.063 18.8988C182.908 18.6567 183.764 18.4523 184.647 18.2856C185.582 18.0919 186.47 17.9521 187.316 17.8606C188.161 17.7692 188.901 17.6293 189.541 17.4518C190.18 17.2743 190.693 17.0215 191.063 16.6772C191.438 16.3383 191.623 15.838 191.623 15.1871C191.623 14.4287 191.485 13.8154 191.205 13.3528C190.925 12.8902 190.566 12.5352 190.122 12.2931C189.678 12.051 189.187 11.8897 188.637 11.8036C188.087 11.7175 187.548 11.6799 187.009 11.6799C185.567 11.6799 184.362 11.9596 183.4 12.519C182.438 13.0785 181.915 14.1328 181.836 15.682H178.427C178.48 14.3749 178.749 13.2721 179.23 12.3792C179.711 11.4809 180.356 10.7547 181.154 10.1952C181.957 9.63578 182.871 9.23771 183.897 8.99565C184.922 8.75358 186.026 8.62448 187.205 8.62448C188.14 8.62448 189.07 8.69441 189.99 8.82889C190.909 8.96337 191.75 9.24309 192.495 9.66267C193.24 10.0823 193.842 10.674 194.297 11.4324C194.751 12.1909 194.979 13.1861 194.979 14.4018V25.2355C194.979 26.0532 195.026 26.6449 195.116 27.0268C195.206 27.4087 195.523 27.597 196.057 27.597C196.347 27.597 196.696 27.5432 197.098 27.4356V30.1414L197.114 30.1306ZM191.58 19.3184C191.152 19.6411 190.587 19.8778 189.9 20.0338C189.202 20.1844 188.478 20.3028 187.717 20.3996C186.956 20.4964 186.19 20.604 185.413 20.7224C184.636 20.8407 183.939 21.0397 183.326 21.3087C182.713 21.5777 182.211 21.965 181.825 22.4652C181.434 22.9655 181.244 23.654 181.244 24.5147C181.244 25.0795 181.355 25.5637 181.587 25.9564C181.814 26.349 182.11 26.6718 182.47 26.9085C182.834 27.1505 183.252 27.3281 183.733 27.4356C184.214 27.5432 184.721 27.597 185.255 27.597C186.38 27.597 187.342 27.441 188.145 27.129C188.949 26.817 189.604 26.4243 190.106 25.951C190.608 25.4776 190.989 24.9612 191.232 24.4071C191.475 23.8531 191.596 23.3313 191.596 22.8472V19.313L191.586 19.3238L191.58 19.3184Z" fill="black"></path>
    <path d="M203.893 1.06664V30.2059H200.484V1.06664H203.893Z" fill="black"></path>
    <path d="M219.568 1.06664C223.981 1.06664 227.373 2.21241 229.751 4.49859C232.13 6.78476 233.319 10.2705 233.319 14.9504C233.319 17.4034 233.054 19.5712 232.515 21.4593C231.976 23.3474 231.152 24.9396 230.031 26.236C228.906 27.5271 227.479 28.5168 225.74 29.1946C224.002 29.8778 221.941 30.2167 219.563 30.2167H209.738V1.06664H219.563H219.568ZM219.89 26.9407C220.318 26.9407 220.852 26.9084 221.497 26.8385C222.136 26.7686 222.823 26.6072 223.542 26.349C224.261 26.0908 224.979 25.7196 225.687 25.2247C226.396 24.7352 227.03 24.0682 227.595 23.2291C228.161 22.3899 228.615 21.3302 228.98 20.0661C229.344 18.802 229.524 17.2743 229.524 15.4776C229.524 13.6809 229.355 12.1801 229.022 10.803C228.689 9.43134 228.14 8.25867 227.379 7.29578C226.618 6.32752 225.635 5.59595 224.435 5.0903C223.235 4.58465 221.75 4.33721 219.98 4.33721H213.564V26.9461H219.901L219.89 26.9407Z" fill="black"></path>
    <path d="M237.615 5.31085V1.06664H241.024V5.31085H237.615ZM241.024 9.1032V30.2059H237.615V9.10858H241.024V9.1032Z" fill="black"></path>
    <path d="M248.919 25.4991C249.242 26.0317 249.659 26.4512 250.182 26.7632C250.706 27.0752 251.292 27.3012 251.947 27.4356C252.603 27.5701 253.279 27.64 253.971 27.64C254.51 27.64 255.065 27.597 255.652 27.5163C256.239 27.4356 256.783 27.285 257.28 27.0699C257.776 26.8493 258.178 26.5319 258.5 26.1123C258.823 25.6928 258.981 25.1548 258.981 24.4986C258.981 23.6002 258.648 22.9225 257.977 22.4599C257.306 21.9972 256.476 21.6207 255.472 21.3356C254.468 21.0505 253.38 20.7923 252.206 20.561C251.033 20.3297 249.939 20.0015 248.94 19.582C247.942 19.1624 247.101 18.5653 246.435 17.8068C245.764 17.0483 245.431 15.9833 245.431 14.6223C245.431 13.5626 245.664 12.6481 246.134 11.8897C246.605 11.1312 247.202 10.5126 247.936 10.0338C248.671 9.55509 249.501 9.20544 250.42 8.97413C251.34 8.74282 252.254 8.62448 253.163 8.62448C254.336 8.62448 255.425 8.72669 256.408 8.9311C257.391 9.13551 258.273 9.49054 259.034 9.9908C259.795 10.4965 260.403 11.1742 260.857 12.0295C261.312 12.8848 261.576 13.9553 261.661 15.2356H258.252C258.194 14.5524 258.025 13.9929 257.729 13.5465C257.433 13.1 257.058 12.7396 256.603 12.4652C256.149 12.1963 255.647 11.9973 255.102 11.8735C254.558 11.7498 253.998 11.6906 253.443 11.6906C252.936 11.6906 252.423 11.7337 251.9 11.8144C251.377 11.8951 250.901 12.0403 250.478 12.2393C250.05 12.4437 249.701 12.7181 249.437 13.057C249.173 13.3959 249.041 13.837 249.041 14.3856C249.041 14.9827 249.247 15.483 249.664 15.8757C250.077 16.2737 250.605 16.5965 251.25 16.8547C251.895 17.1129 252.613 17.3334 253.417 17.5056C254.22 17.6831 255.023 17.866 255.826 18.0596C256.682 18.2533 257.517 18.4792 258.331 18.7536C259.145 19.0279 259.869 19.3883 260.498 19.8348C261.127 20.2813 261.634 20.8515 262.02 21.5239C262.411 22.207 262.601 23.0462 262.601 24.0521C262.601 25.3324 262.342 26.3921 261.819 27.2366C261.296 28.0811 260.62 28.7589 259.774 29.2753C258.928 29.7917 257.983 30.1521 256.926 30.3566C255.869 30.561 254.817 30.6632 253.776 30.6632C252.624 30.6632 251.53 30.5394 250.489 30.292C249.448 30.0499 248.528 29.6465 247.725 29.0924C246.922 28.5384 246.282 27.8014 245.801 26.8923C245.32 25.9832 245.056 24.8751 244.998 23.568H248.407C248.433 24.3264 248.607 24.9773 248.93 25.5099H248.914L248.919 25.4991Z" fill="black"></path>
    <path d="M269.889 9.10854V11.9649H269.968C270.529 10.7922 271.411 9.9477 272.616 9.41515C273.816 8.88261 275.142 8.61903 276.585 8.61903C278.191 8.61903 279.586 8.92026 280.776 9.51736C281.965 10.1145 282.953 10.9267 283.74 11.9488C284.528 12.9708 285.125 14.1435 285.526 15.4775C285.923 16.8116 286.129 18.2263 286.129 19.7218C286.129 21.2172 285.933 22.6373 285.548 23.966C285.162 25.2946 284.57 26.4619 283.783 27.4571C282.995 28.4522 282.002 29.2322 280.818 29.8024C279.629 30.3726 278.244 30.6631 276.664 30.6631C276.157 30.6631 275.586 30.6093 274.962 30.5017C274.334 30.3941 273.715 30.2166 273.097 29.9692C272.484 29.7271 271.903 29.3936 271.353 28.9686C270.803 28.5491 270.344 28.0219 269.968 27.3979H269.889V38.2532H266.48V9.10854H269.889ZM282.139 16.5964C281.885 15.6604 281.5 14.8213 280.976 14.0897C280.453 13.3581 279.787 12.7664 278.973 12.3361C278.154 11.9004 277.203 11.6852 276.104 11.6852C275.005 11.6852 273.979 11.9219 273.176 12.3791C272.373 12.8417 271.718 13.4442 271.216 14.1973C270.708 14.945 270.344 15.7949 270.111 16.747C269.884 17.6992 269.768 18.6674 269.768 19.6464C269.768 20.6846 269.889 21.6798 270.132 22.6427C270.37 23.6109 270.756 24.4608 271.274 25.1924C271.797 25.924 272.468 26.5211 273.298 26.9676C274.127 27.414 275.126 27.64 276.305 27.64C277.483 27.64 278.461 27.4087 279.248 26.9461C280.036 26.4834 280.67 25.8756 281.156 25.1117C281.637 24.3533 281.986 23.4764 282.197 22.4974C282.409 21.5184 282.519 20.5071 282.519 19.4797C282.519 18.4523 282.393 17.5378 282.134 16.6018L282.139 16.5964Z" fill="black"></path>
    <path d="M308.504 30.1306C307.918 30.4857 307.098 30.6632 306.063 30.6632C305.18 30.6632 304.477 30.4157 303.954 29.9101C303.431 29.4044 303.172 28.5814 303.172 27.4356C302.237 28.5814 301.148 29.4044 299.906 29.9101C298.664 30.4157 297.322 30.6632 295.879 30.6632C294.944 30.6632 294.056 30.5556 293.21 30.335C292.365 30.1145 291.641 29.7756 291.028 29.313C290.415 28.8504 289.923 28.2479 289.564 27.4948C289.199 26.7471 289.02 25.838 289.02 24.7783C289.02 23.5841 289.22 22.6051 289.622 21.8359C290.018 21.0774 290.552 20.4588 291.207 19.98C291.863 19.5067 292.608 19.1409 293.453 18.8988C294.299 18.6567 295.155 18.4523 296.038 18.2856C296.973 18.0919 297.861 17.9521 298.706 17.8606C299.552 17.7692 300.292 17.6293 300.931 17.4518C301.571 17.2743 302.083 17.0215 302.453 16.6772C302.828 16.3383 303.013 15.838 303.013 15.1871C303.013 14.4287 302.876 13.8154 302.596 13.3528C302.316 12.8902 301.956 12.5352 301.513 12.2931C301.074 12.051 300.577 11.8897 300.028 11.8036C299.478 11.7175 298.939 11.6799 298.4 11.6799C296.957 11.6799 295.752 11.9596 294.79 12.519C293.829 13.0785 293.305 14.1328 293.226 15.682H289.817C289.87 14.3749 290.14 13.2721 290.621 12.3792C291.102 11.4809 291.746 10.7547 292.544 10.1952C293.348 9.63578 294.262 9.23771 295.287 8.99565C296.312 8.75358 297.417 8.62448 298.595 8.62448C299.531 8.62448 300.461 8.69441 301.38 8.82889C302.3 8.96337 303.14 9.24309 303.885 9.66267C304.631 10.0823 305.233 10.674 305.687 11.4324C306.142 12.1909 306.369 13.1861 306.369 14.4018V25.2355C306.369 26.0532 306.417 26.6449 306.512 27.0268C306.602 27.4087 306.919 27.597 307.453 27.597C307.743 27.597 308.092 27.5432 308.494 27.4356V30.1414L308.504 30.1306ZM302.971 19.3184C302.543 19.6411 301.978 19.8778 301.291 20.0338C300.593 20.1844 299.869 20.3028 299.108 20.3996C298.347 20.4964 297.581 20.604 296.804 20.7224C296.027 20.8407 295.329 21.0397 294.716 21.3087C294.103 21.5777 293.601 21.965 293.216 22.4652C292.825 22.9655 292.634 23.654 292.634 24.5147C292.634 25.0795 292.745 25.5637 292.978 25.9564C293.205 26.349 293.501 26.6718 293.86 26.9085C294.225 27.1505 294.642 27.3281 295.123 27.4356C295.604 27.5432 296.112 27.597 296.645 27.597C297.771 27.597 298.733 27.441 299.536 27.129C300.339 26.817 300.995 26.4243 301.497 25.951C302.004 25.4776 302.379 24.9612 302.622 24.4071C302.865 23.8531 302.987 23.3313 302.987 22.8472V19.313L302.976 19.3238L302.971 19.3184Z" fill="black"></path>
    <path d="M320.532 9.10856V12.1693H316.399V25.2731C316.399 25.6766 316.431 26.0047 316.499 26.2522C316.568 26.4942 316.695 26.6879 316.885 26.8224C317.075 26.9568 317.334 27.0483 317.667 27.0859C318 27.129 318.434 27.1505 318.973 27.1505H320.537V30.2113H317.931C317.049 30.2113 316.293 30.1467 315.664 30.0284C315.035 29.9047 314.528 29.6787 314.142 29.356C313.751 29.0278 313.466 28.5652 313.281 27.9681C313.091 27.371 313.001 26.5803 313.001 25.6013V12.1747H309.471V9.11394H313.001V2.78797H316.41V9.11394H320.542L320.532 9.10856Z" fill="black"></path>
    <path d="M336.687 12.7771C335.831 12.0455 334.684 11.6744 333.241 11.6744C332.01 11.6744 330.979 11.911 330.155 12.3683C329.325 12.8309 328.665 13.4441 328.173 14.2026C327.676 14.9611 327.322 15.8433 327.111 16.833C326.894 17.8282 326.789 18.8502 326.789 19.9153C326.789 20.8943 326.9 21.8465 327.132 22.7717C327.359 23.6969 327.713 24.5199 328.194 25.2461C328.675 25.9723 329.304 26.5479 330.081 26.9783C330.858 27.414 331.777 27.6291 332.845 27.6291C334.525 27.6291 335.846 27.1827 336.792 26.2789C337.744 25.3806 338.32 24.1165 338.536 22.4866H342.024C341.649 25.1009 340.693 27.1127 339.155 28.5275C337.617 29.9422 335.524 30.6523 332.882 30.6523C331.302 30.6523 329.906 30.3941 328.691 29.8777C327.476 29.3612 326.456 28.6243 325.642 27.6722C324.828 26.72 324.21 25.585 323.797 24.2617C323.385 22.9385 323.174 21.4914 323.174 19.9153C323.174 18.3392 323.375 16.8599 323.776 15.4882C324.173 14.1165 324.786 12.917 325.599 11.9003C326.413 10.8782 327.433 10.0767 328.665 9.49038C329.891 8.90943 331.323 8.61357 332.956 8.61357C334.129 8.61357 335.233 8.75343 336.264 9.03853C337.289 9.32363 338.203 9.76473 338.991 10.3672C339.778 10.9643 340.428 11.7228 340.936 12.6319C341.443 13.5409 341.765 14.6275 341.897 15.8755H338.367C338.103 14.5415 337.538 13.5087 336.687 12.7717V12.7825V12.7771Z" fill="black"></path>
    <path d="M349.239 1.06664V12.207H349.318C349.582 11.5561 349.957 11.0075 350.444 10.5502C350.925 10.1037 351.464 9.73257 352.071 9.44747C352.679 9.16237 353.297 8.95259 353.958 8.81273C354.613 8.67824 355.247 8.60831 355.866 8.60831C357.229 8.60831 358.365 8.80197 359.274 9.17851C360.183 9.56044 360.918 10.0876 361.478 10.7708C362.038 11.4539 362.435 12.2608 362.657 13.2022C362.884 14.1382 363 15.1817 363 16.3221V30.2005H359.591V15.9187C359.591 14.6115 359.216 13.5787 358.466 12.8149C357.721 12.0564 356.685 11.6691 355.379 11.6691C354.338 11.6691 353.435 11.8305 352.674 12.1586C351.913 12.4867 351.279 12.9494 350.766 13.5464C350.253 14.1435 349.878 14.8482 349.624 15.6497C349.371 16.4512 349.239 17.328 349.239 18.2802V30.1952H345.83V1.06664H349.239Z" fill="black"></path>
    <path d="M81.0775 40.6734V46.7197H81.125C81.4368 46.0688 81.923 45.5954 82.5942 45.3049C83.2653 45.0144 83.9946 44.8638 84.7926 44.8638C85.6804 44.8638 86.4573 45.0306 87.1126 45.3641C87.7679 45.6976 88.3175 46.1441 88.7614 46.7089C89.2053 47.2737 89.5277 47.93 89.7496 48.6669C89.9769 49.4039 90.0826 50.1893 90.0826 51.0177C90.0826 51.8461 89.9716 52.6368 89.7602 53.3684C89.5435 54.1053 89.2159 54.7508 88.7825 55.3049C88.3439 55.859 87.7943 56.2893 87.1337 56.6067C86.4731 56.9241 85.7069 57.0801 84.8349 57.0801C84.5548 57.0801 84.2377 57.0478 83.8889 56.9886C83.5401 56.9294 83.1913 56.8272 82.8531 56.6981C82.5149 56.5583 82.1873 56.3808 81.886 56.1441C81.5848 55.9074 81.3258 55.6169 81.1197 55.2726H81.0722V56.8326H79.1855V40.6734H81.0775ZM87.8683 49.2802C87.7256 48.7584 87.5142 48.2958 87.2236 47.887C86.9382 47.4835 86.563 47.1554 86.1085 46.9133C85.654 46.6712 85.1255 46.5529 84.5178 46.5529C83.8783 46.5529 83.3393 46.682 82.8954 46.9348C82.4515 47.1877 82.0868 47.5265 81.8068 47.9407C81.5267 48.3549 81.3206 48.8283 81.1937 49.3555C81.0669 49.8826 81.0035 50.4206 81.0035 50.9639C81.0035 51.5394 81.0722 52.0935 81.2043 52.6314C81.3417 53.1694 81.5478 53.6373 81.8385 54.0462C82.1238 54.455 82.5043 54.7777 82.9641 55.0306C83.4239 55.278 83.9788 55.4017 84.6341 55.4017C85.2894 55.4017 85.8337 55.2726 86.2723 55.0198C86.7109 54.767 87.0597 54.4227 87.3293 54.0031C87.5935 53.5836 87.789 53.0994 87.9106 52.5561C88.0321 52.0128 88.0903 51.4534 88.0903 50.8778C88.0903 50.3345 88.0215 49.802 87.8789 49.2802H87.8683Z" fill="black"></path>
    <path d="M96.815 58.3928C96.5878 58.9684 96.3764 59.4471 96.1597 59.8398C95.943 60.2325 95.7052 60.5552 95.4463 60.8027C95.1873 61.0501 94.8967 61.233 94.5796 61.346C94.2625 61.459 93.8926 61.5181 93.4804 61.5181C93.2531 61.5181 93.0364 61.502 92.8092 61.4751C92.582 61.4428 92.3706 61.389 92.1645 61.3137V59.5493C92.3283 59.6246 92.5133 59.6892 92.7299 59.743C92.9466 59.7968 93.1263 59.8237 93.2743 59.8237C93.66 59.8237 93.9824 59.7268 94.2414 59.544C94.5003 59.3611 94.6958 59.0867 94.8332 58.7424L95.6101 56.7736L91.0547 45.1438H93.1897L96.5455 54.7134H96.5878L99.8114 45.1438H101.814L96.8097 58.4036L96.815 58.3928Z" fill="black"></path>
    <path d="M119.503 42.9597C118.694 42.3842 117.738 42.0991 116.623 42.0991C115.677 42.0991 114.863 42.282 114.186 42.6424C113.51 43.0028 112.96 43.4869 112.516 44.1001C112.072 44.7134 111.761 45.4073 111.549 46.1927C111.338 46.9726 111.238 47.7957 111.238 48.6348C111.238 49.5547 111.343 50.4261 111.549 51.2491C111.761 52.0722 112.078 52.7876 112.516 53.4008C112.955 54.0141 113.515 54.4982 114.197 54.8586C114.879 55.219 115.692 55.4019 116.644 55.4019C117.341 55.4019 117.96 55.2836 118.499 55.0522C119.038 54.8209 119.508 54.4928 119.899 54.0786C120.29 53.6644 120.602 53.1695 120.824 52.5939C121.051 52.0184 121.178 51.3998 121.226 50.7381H123.339C123.128 52.7768 122.441 54.3583 121.268 55.488C120.095 56.6176 118.499 57.1878 116.464 57.1878C115.238 57.1878 114.16 56.9726 113.24 56.5423C112.321 56.112 111.56 55.5202 110.952 54.7671C110.344 54.0141 109.885 53.1211 109.583 52.0937C109.282 51.0662 109.129 49.9635 109.129 48.7908C109.129 47.6182 109.293 46.51 109.62 45.4772C109.943 44.4444 110.424 43.5407 111.053 42.7768C111.681 42.0076 112.469 41.3998 113.41 40.9587C114.35 40.5122 115.428 40.2916 116.644 40.2916C117.473 40.2916 118.261 40.4046 119.001 40.6305C119.741 40.8565 120.401 41.19 120.982 41.6257C121.564 42.0614 122.045 42.6101 122.425 43.2664C122.811 43.9226 123.065 44.6811 123.181 45.5364H121.067C120.829 44.3906 120.311 43.5299 119.497 42.9544V42.9705L119.503 42.9597Z" fill="black"></path>
    <path d="M125.379 48.5809C125.617 47.8386 125.971 47.1877 126.447 46.6336C126.923 46.0849 127.509 45.6492 128.201 45.3318C128.899 45.0198 129.697 44.8585 130.601 44.8585C131.504 44.8585 132.324 45.0198 133.011 45.3318C133.703 45.6492 134.279 46.0796 134.755 46.6336C135.23 47.1877 135.584 47.8332 135.822 48.5809C136.06 49.3232 136.176 50.1301 136.176 50.9908C136.176 51.8515 136.055 52.653 135.822 53.3899C135.584 54.1269 135.23 54.7724 134.755 55.3264C134.279 55.8805 133.698 56.3055 133.011 56.6121C132.318 56.9187 131.515 57.0747 130.601 57.0747C129.686 57.0747 128.899 56.9187 128.201 56.6121C127.504 56.3055 126.923 55.8751 126.447 55.3264C125.971 54.7724 125.617 54.1269 125.379 53.3899C125.142 52.653 125.025 51.8515 125.025 50.9908C125.025 50.1301 125.147 49.3232 125.379 48.5809ZM127.303 52.8789C127.488 53.433 127.742 53.8902 128.069 54.256C128.392 54.6271 128.778 54.9122 129.216 55.1005C129.655 55.2995 130.115 55.391 130.606 55.391C131.097 55.391 131.557 55.2942 131.996 55.1005C132.435 54.9069 132.815 54.6218 133.143 54.256C133.465 53.8902 133.724 53.4276 133.909 52.8789C134.094 52.3302 134.184 51.6955 134.184 50.9908C134.184 50.2861 134.089 49.6514 133.909 49.1027C133.724 48.554 133.47 48.086 133.143 47.7095C132.82 47.3329 132.435 47.0424 131.996 46.8488C131.557 46.6551 131.097 46.5583 130.606 46.5583C130.115 46.5583 129.655 46.6551 129.216 46.8488C128.778 47.0424 128.397 47.3329 128.069 47.7095C127.742 48.086 127.488 48.5486 127.303 49.1027C127.118 49.6567 127.028 50.2861 127.028 50.9908C127.028 51.6955 127.123 52.3302 127.303 52.8789Z" fill="black"></path>
    <path d="M137.497 45.1329H139.922L142.676 49.2318L145.545 45.1329H147.812L143.854 50.5175L148.304 56.8327H145.878L142.681 51.9914L139.484 56.8327H137.195L141.508 50.6788L137.502 45.1329H137.497Z" fill="black"></path>
    <path d="M163.065 40.6734L169.269 56.8326H166.933L165.2 51.9698H158.488L156.713 56.8326H154.557L160.734 40.6734H163.07H163.065ZM164.534 50.157L161.892 42.6207H161.85L159.16 50.157H164.539H164.534Z" fill="black"></path>
    <path d="M178.247 56.8274V54.9716H178.205C177.803 55.6978 177.296 56.225 176.672 56.5692C176.049 56.9135 175.319 57.0803 174.474 57.0803C173.718 57.0803 173.089 56.9781 172.582 56.779C172.08 56.5746 171.673 56.2841 171.361 55.9076C171.049 55.531 170.833 55.0846 170.706 54.5628C170.579 54.041 170.516 53.4654 170.516 52.8361V45.1438H172.408V53.0674C172.408 53.7936 172.619 54.3638 173.031 54.7833C173.443 55.2029 174.019 55.4181 174.738 55.4181C175.319 55.4181 175.816 55.3266 176.239 55.1491C176.662 54.9662 177.011 54.7134 177.296 54.3799C177.576 54.0518 177.787 53.6591 177.93 53.2126C178.073 52.7661 178.141 52.282 178.141 51.7548V45.1491H180.033V56.849H178.252L178.247 56.8274Z" fill="black"></path>
    <path d="M187.781 45.133V46.8329H185.492V54.0948C185.492 54.3261 185.513 54.5036 185.55 54.6381C185.587 54.7726 185.661 54.8802 185.762 54.9501C185.868 55.0254 186.005 55.0738 186.195 55.1007C186.38 55.1223 186.618 55.133 186.914 55.133H187.781V56.8328H186.338C185.846 56.8328 185.429 56.8006 185.085 56.7306C184.737 56.6607 184.451 56.537 184.24 56.3595C184.028 56.182 183.865 55.9238 183.764 55.5902C183.659 55.2621 183.606 54.821 183.606 54.2777V46.8329H181.65V45.133H183.606V41.6258H185.492V45.133H187.781Z" fill="black"></path>
    <path d="M189.604 48.5809C189.842 47.8386 190.196 47.1877 190.672 46.6336C191.147 46.0849 191.734 45.6492 192.426 45.3318C193.124 45.0198 193.922 44.8585 194.825 44.8585C195.729 44.8585 196.548 45.0198 197.235 45.3318C197.927 45.6492 198.503 46.0796 198.979 46.6336C199.455 47.1877 199.809 47.8332 200.047 48.5809C200.284 49.3232 200.401 50.1301 200.401 50.9908C200.401 51.8515 200.279 52.653 200.047 53.3899C199.809 54.1269 199.455 54.7724 198.979 55.3264C198.503 55.8805 197.922 56.3055 197.235 56.6121C196.548 56.9187 195.74 57.0747 194.825 57.0747C193.911 57.0747 193.124 56.9187 192.426 56.6121C191.729 56.3055 191.147 55.8751 190.672 55.3264C190.196 54.7724 189.842 54.1269 189.604 53.3899C189.366 52.653 189.25 51.8515 189.25 50.9908C189.25 50.1301 189.372 49.3232 189.604 48.5809ZM191.528 52.8789C191.713 53.433 191.966 53.8902 192.294 54.256C192.616 54.6271 193.002 54.9122 193.441 55.1005C193.879 55.2995 194.339 55.391 194.831 55.391C195.322 55.391 195.782 55.2942 196.221 55.1005C196.659 54.9069 197.04 54.6218 197.367 54.256C197.69 53.8902 197.949 53.4276 198.134 52.8789C198.319 52.3302 198.408 51.6955 198.408 50.9908C198.408 50.2861 198.313 49.6514 198.134 49.1027C197.949 48.554 197.695 48.086 197.367 47.7095C197.045 47.3329 196.659 47.0424 196.221 46.8488C195.782 46.6551 195.322 46.5583 194.831 46.5583C194.339 46.5583 193.879 46.6551 193.441 46.8488C193.002 47.0424 192.622 47.3329 192.294 47.7095C191.966 48.086 191.713 48.5486 191.528 49.1027C191.343 49.6567 191.253 50.2861 191.253 50.9908C191.253 51.6955 191.348 52.3302 191.528 52.8789Z" fill="black"></path>
    <path d="M204.406 45.1328V46.8488H204.448C205.305 45.5255 206.546 44.8585 208.158 44.8585C208.872 44.8585 209.511 45.0091 210.092 45.3103C210.674 45.6116 211.081 46.1226 211.313 46.8488C211.699 46.214 212.206 45.7245 212.835 45.3803C213.464 45.036 214.156 44.8585 214.917 44.8585C215.499 44.8585 216.017 44.923 216.487 45.0521C216.952 45.1812 217.354 45.3803 217.687 45.6546C218.02 45.9236 218.278 46.2786 218.463 46.7089C218.648 47.1393 218.738 47.6557 218.738 48.2581V56.8326H216.846V49.1618C216.846 48.8014 216.815 48.4572 216.756 48.1452C216.698 47.8278 216.582 47.5535 216.424 47.3222C216.265 47.0908 216.038 46.9026 215.742 46.7681C215.446 46.6336 215.076 46.5637 214.616 46.5637C213.681 46.5637 212.946 46.8326 212.418 47.3759C211.889 47.9192 211.62 48.6401 211.62 49.5492V56.8326H209.728V49.1618C209.728 48.7853 209.696 48.4357 209.627 48.1183C209.559 47.8009 209.442 47.5266 209.284 47.2953C209.125 47.0639 208.903 46.8811 208.629 46.752C208.354 46.6229 208 46.5583 207.572 46.5583C207.022 46.5583 206.552 46.6713 206.161 46.8972C205.77 47.1231 205.447 47.3975 205.204 47.7095C204.961 48.0215 204.781 48.355 204.67 48.6939C204.559 49.0327 204.501 49.3178 204.501 49.5384V56.8219H202.609V45.122H204.396L204.406 45.1328Z" fill="black"></path>
    <path d="M221.329 48.5809C221.566 47.8386 221.921 47.1877 222.396 46.6336C222.872 46.0849 223.458 45.6492 224.151 45.3318C224.848 45.0198 225.646 44.8585 226.55 44.8585C227.454 44.8585 228.273 45.0198 228.96 45.3318C229.652 45.6492 230.228 46.0796 230.704 46.6336C231.179 47.1877 231.533 47.8332 231.771 48.5809C232.009 49.3232 232.125 50.1301 232.125 50.9908C232.125 51.8515 232.004 52.653 231.771 53.3899C231.533 54.1269 231.179 54.7724 230.704 55.3264C230.228 55.8805 229.647 56.3055 228.96 56.6121C228.273 56.9187 227.464 57.0747 226.55 57.0747C225.636 57.0747 224.848 56.9187 224.151 56.6121C223.453 56.3055 222.872 55.8751 222.396 55.3264C221.921 54.7724 221.566 54.1269 221.329 53.3899C221.091 52.653 220.975 51.8515 220.975 50.9908C220.975 50.1301 221.096 49.3232 221.329 48.5809ZM223.252 52.8789C223.437 53.433 223.691 53.8902 224.019 54.256C224.341 54.6271 224.727 54.9122 225.165 55.1005C225.604 55.2995 226.064 55.391 226.555 55.391C227.047 55.391 227.506 55.2942 227.945 55.1005C228.384 54.9069 228.764 54.6218 229.092 54.256C229.414 53.8902 229.673 53.4276 229.858 52.8789C230.043 52.3302 230.133 51.6955 230.133 50.9908C230.133 50.2861 230.038 49.6514 229.858 49.1027C229.673 48.554 229.42 48.086 229.092 47.7095C228.77 47.3329 228.384 47.0424 227.945 46.8488C227.506 46.6551 227.047 46.5583 226.555 46.5583C226.064 46.5583 225.604 46.6551 225.165 46.8488C224.727 47.0424 224.346 47.3329 224.019 47.7095C223.691 48.086 223.437 48.5486 223.252 49.1027C223.067 49.6567 222.977 50.2861 222.977 50.9908C222.977 51.6955 223.073 52.3302 223.252 52.8789Z" fill="black"></path>
    <path d="M239.269 45.133V46.8329H236.981V54.0948C236.981 54.3261 237.002 54.5036 237.039 54.6381C237.076 54.7726 237.15 54.8802 237.25 54.9501C237.356 55.0254 237.493 55.0738 237.684 55.1007C237.868 55.1223 238.106 55.133 238.402 55.133H239.269V56.8328H237.826C237.335 56.8328 236.917 56.8006 236.574 56.7306C236.225 56.6607 235.94 56.537 235.728 56.3595C235.517 56.182 235.353 55.9238 235.253 55.5902C235.147 55.2621 235.094 54.821 235.094 54.2777V46.8329H233.139V45.133H235.094V41.6258H236.981V45.133H239.269Z" fill="black"></path>
    <path d="M241.469 43.0241V40.6734H243.361V43.0241H241.469ZM243.361 45.1328V56.8326H241.469V45.1328H243.361Z" fill="black"></path>
    <path d="M249.454 56.8276L245.184 45.1277H247.297L250.521 54.8803H250.563L253.697 45.1277H255.679L251.478 56.8276H249.454Z" fill="black"></path>
    <path d="M265.544 56.0851C264.683 56.7521 263.605 57.0802 262.3 57.0802C261.38 57.0802 260.587 56.9296 259.911 56.6284C259.234 56.3271 258.669 55.9022 258.215 55.3642C257.755 54.8209 257.411 54.1701 257.179 53.417C256.946 52.6639 256.819 51.8408 256.793 50.9479C256.793 50.0603 256.925 49.2427 257.195 48.5057C257.459 47.7688 257.839 47.1286 258.32 46.5853C258.801 46.042 259.372 45.6225 260.027 45.3212C260.688 45.02 261.407 44.8694 262.194 44.8694C263.219 44.8694 264.065 45.0845 264.741 45.5149C265.418 45.9452 265.951 46.4939 266.364 47.1555C266.77 47.8226 267.056 48.5434 267.209 49.3287C267.362 50.1141 267.431 50.8618 267.399 51.5665H258.796C258.78 52.0775 258.838 52.567 258.976 53.0243C259.108 53.4869 259.324 53.8903 259.62 54.2454C259.916 54.6004 260.297 54.8855 260.756 55.0953C261.216 55.3051 261.755 55.4073 262.379 55.4073C263.177 55.4073 263.837 55.219 264.345 54.8425C264.857 54.4659 265.19 53.8903 265.359 53.1265H267.225C266.977 54.439 266.416 55.4234 265.555 56.0904L265.544 56.0851ZM265.09 48.5703C264.916 48.1615 264.688 47.8172 264.398 47.5159C264.107 47.2147 263.763 46.9888 263.372 46.8113C262.981 46.6338 262.548 46.5531 262.072 46.5531C261.597 46.5531 261.142 46.6391 260.751 46.8113C260.36 46.9888 260.022 47.2201 259.737 47.5267C259.451 47.8333 259.234 48.183 259.065 48.581C258.902 48.9791 258.806 49.4041 258.78 49.8559H265.381C265.349 49.4041 265.248 48.9737 265.085 48.5703H265.09Z" fill="black"></path>
  </g>
  <defs>
    <clipPath id="clip0_3591_2011">
      <rect width="363" height="61.4308" fill="white" transform="translate(0 0.232615)"></rect>
    </clipPath>
  </defs>
</svg>
